<svg xmlns="http://www.w3.org/2000/svg" viewBox="0 0 24 24" fill="currentColor"><path d="M12 2c-1.5 0-2.9.5-4 1.3-1.1.8-1.9 1.9-2.4 3.1-.5 1.2-.8 2.5-.8 3.9 0 1.4.3 2.7.8 3.9.5 1.2 1.3 2.3 2.4 3.1 1.1.8 2.5 1.3 4 1.3s2.9-.5 4-1.3c1.1-.8 1.9-1.9 2.4-3.1.5-1.2.8-2.5.8-3.9 0-1.4-.3-2.7-.8-3.9-.5-1.2-1.3-2.3-2.4-3.1C14.9 2.5 13.5 2 12 2zm0 2c1.1 0 2.1.4 2.9 1 .8.6 1.4 1.4 1.8 2.3.4.9.5 1.9.5 2.9s-.1 2-.5 2.9c-.4.9-1 1.7-1.8 2.3-.8.6-1.8 1-2.9 1s-2.1-.4-2.9-1c-.8-.6-1.4-1.4-1.8-2.3C6.1 13 6 12 6 11s.1-2 .5-2.9c.4-.9 1-1.7 1.8-2.3C9.1 4.4 10.1 4 12 4z"/></svg>
