<svg xmlns="http://www.w3.org/2000/svg" viewBox="0 0 24 24" fill="currentColor"><path d="M11.998 0C5.366 0 0 5.367 0 12s5.366 12 11.998 12C18.629 24 24 18.633 24 12S18.629 0 11.998 0zM6.37 14.575c.392.523.916.742 1.657.742 1.312 0 2.187-.915 2.187-2.047 0-.915-.524-1.57-1.657-2.047l-.524-.262c-.524-.262-.785-.523-.785-.915 0-.523.393-.915 1.048-.915.654 0 1.048.392 1.048.915h1.657c0-1.31-.915-2.186-2.705-2.186-1.657 0-2.705.915-2.705 2.186 0 .915.524 1.57 1.657 2.047l.524.262c.524.262.785.523.785.915 0 .523-.393.915-1.048.915-.785 0-1.179-.523-1.179-1.178H6.37c0 .654.131 1.31.654 1.832zm6.545-6.283h1.657v6.283h-1.657V8.292zm4.19 0h1.657v6.283h-1.657V8.292z"/></svg>
